<svg id="Layer_1" data-name="Layer 1" xmlns="http://www.w3.org/2000/svg" width="256" height="256" viewBox="0 0 256 256"><title>brachiosaurus</title><path d="M59.1,166.9a31.9,31.9,0,0,0-7.7.9h0c0,.3.3.6.8,1l2,1,2.6,1,2.8.8,2.4.6,1.4.2h2.1a10.1,10.1,0,0,0,2.5-.4l2.4-.8a5,5,0,0,0,1.7-1.5,30.3,30.3,0,0,0-6.4-2.2A29,29,0,0,0,59.1,166.9Z"/><path d="M127.5,2A126.2,126.2,0,1,0,253.7,128.2,126.2,126.2,0,0,0,127.5,2Zm82.3,69.6v.3a8.8,8.8,0,0,1-.1,1.4l-.3,2.1a15.5,15.5,0,0,0-.4,2.1c-.1.6-.2,1.1-.2,1.3a7.6,7.6,0,0,0-.9,1.8c-.2.7-.5,1.3-.7,2a19.4,19.4,0,0,1-.5,2l-.7,1.9c-.6,1.1-1.1,2.1-1.7,3s-1.1,2-1.6,3l-19.8,27.6-.2.5-.3.3c-.1.1-.2.1-.3.3a1.1,1.1,0,0,0-.4.5l-1.7,2.2-2,2.9-2.2,3.2c-.7,1.1-1.4,2.2-1.9,3.2a15.9,15.9,0,0,0-1.4,3,5.3,5.3,0,0,0-.5,2.3c0,.3-.3.5-.3.7a1.4,1.4,0,0,1,.2.7h0c-.1,0-.2.1-.2.4a.5.5,0,0,0,.2.4v10.1a4.4,4.4,0,0,1-.2,1c-.2.3-.2.7-.4,1.1s-.5.8-.6,1.2-.4.8-.4,1.1v1.7a.5.5,0,0,1,0,.4c-.2.2-.2.5-.4.8s-.6.5-.7.8l-.6.4v.4c0,.1.7.2.8.4s.9.3.9.4v2.8a19.7,19.7,0,0,1-.6,3.5c-.2,1.2-.6,2.3-.8,3.5s-.5,2.3-.6,3.5a19.7,19.7,0,0,0-.4,3.5c0,2.1.1,4.1.3,6.2a41,41,0,0,0,1.1,6.1,27.8,27.8,0,0,0,2.1,5.7,22.2,22.2,0,0,0,3.4,5.2,3.6,3.6,0,0,1-1.2.8l-1.7.7-1.7.5h-1.9l-1-.3-1.2-.3-1-.2h-.7l-.8-.3-.6-.5a1.5,1.5,0,0,1-.3-.7,26.4,26.4,0,0,0,.1-4,29.7,29.7,0,0,0-.3-4.2c-.1-1.5-.3-2.9-.5-4.3s-.4-2.7-.5-4-.1-.3-.2-.7l-.3-.6c.1-1.1.1-2.3.2-3.6a27.5,27.5,0,0,0-.2-4,26.3,26.3,0,0,0-.6-3.9,11.5,11.5,0,0,0-1.3-3.4,3,3,0,0,0-1.5,1.8,17.3,17.3,0,0,0-.8,2.7c-.2.9-.2,1.9-.4,2.8a15.3,15.3,0,0,0-.9,2.4v7.5c0,2.8-.2,5.5-.1,8.2s.2,5.4.5,8.1l.5.4.8.6a2.3,2.3,0,0,1,.7.7.7.7,0,0,1,.4.6c0,.2-.3.5-.8.8l-1.9.8a12.1,12.1,0,0,1-2,.9l-1.2.4h-.2l-4.7-2.6a.4.4,0,0,1-.2-.5v-.6a15,15,0,0,1,0-3,26.2,26.2,0,0,0,.1-2.9,23.4,23.4,0,0,0-.3-3.8l-.6-3.7-.6-3.7a25.5,25.5,0,0,1-.2-3.9c0-1.2,0-2.3.1-3.3l.3-2.8a25.6,25.6,0,0,0,.5-2.7c.2-1,.5-2.1.7-3.2s0-.4,0-.7l-.2-.7a5.5,5.5,0,0,0-1.8.2l-1.9.5-1.9.6-1.9.5-1.3.2h-1.1c-.3.1-.6-.1-1-.1h-2.8a44.2,44.2,0,0,1-5.2-.1h-7.7a4,4,0,0,0-2.3.8v5.2c0,1.7-.1,3.4-.2,5s-.2,3.4-.2,5.1-.2,3.4-.2,5.2v5c0,.5.7,1.1,1.1,1.7a11.5,11.5,0,0,1,1.4,1.7,6.6,6.6,0,0,1,1.2,1.7,3.1,3.1,0,0,1,.5,1.8v.4a10.7,10.7,0,0,1-4,.4c.1.4,0,.7-.2.7h-2.7a8.6,8.6,0,0,1-2.3-.2,3.7,3.7,0,0,1-1.8-.8,2.2,2.2,0,0,1-.7-1.9,4.9,4.9,0,0,1,.1-1.2l.3-1.3.3-1.3a6.6,6.6,0,0,0,.1-1.4,23.6,23.6,0,0,0-.2-3.8c-.2-1.2-.4-2.4-.7-3.6s-.5-2.6-.8-3.8a27.8,27.8,0,0,1-.7-3.9h-.4c-.2,0-.4.7-.5.9a2.5,2.5,0,0,0-.4.7.9.9,0,0,0-.3.5l-1.6,2.3-1.4,2.2a12.8,12.8,0,0,0-1.1,2.4,8.4,8.4,0,0,0-.4,2.7,4.5,4.5,0,0,0,.3,1.6,10.1,10.1,0,0,0,.7,1.5,7.5,7.5,0,0,1,.7,1.2l.4.5a1.2,1.2,0,0,1-.4.8l-1.1.4-1.3.3H99.1l-1.7-.2a1.5,1.5,0,0,1-1-.3,2.2,2.2,0,0,1-.7-.9,9.1,9.1,0,0,1-.6-1.6,7.5,7.5,0,0,0-.5-1.6,4.7,4.7,0,0,1-.3-1.7,3,3,0,0,1,.5-1.4,6.5,6.5,0,0,1,.9-1.6,14,14,0,0,0,1-1.6,8,8,0,0,0,.9-1.4l2.4-5.9,2.4-5.8.5-.8a1.8,1.8,0,0,0,.5-.7l.5-.7a2.2,2.2,0,0,0,.1-.8c0-.4-.1-.6-.3-.7h-1.3l-8.9,2.5a3.2,3.2,0,0,1-1.3.5l-1.7.4-1.6.5a1.2,1.2,0,0,0-.7,1.1,1.2,1.2,0,0,0,.3.9,1.2,1.2,0,0,0,.6.6l.8.6.8.6-.4.4-1.3-.8-1.4-.8-1.5-.6-1.5-.3a17.3,17.3,0,0,0-3.8.5l-3.9,1.2-4,1.1a20.1,20.1,0,0,1-4.2.5,18.5,18.5,0,0,1-3.5-.4,35.8,35.8,0,0,1-4.8-1.1L55,177.5a46.7,46.7,0,0,1-5-2.3,15.2,15.2,0,0,1-3.6-2.6,4.2,4.2,0,0,1-1.4-3,4,4,0,0,1,1.1-3.2,6.2,6.2,0,0,1,2.7-1.7,13.4,13.4,0,0,1,3.5-.1,31.1,31.1,0,0,1,3.3.3h3.9a3.1,3.1,0,0,1,1.3-.2h2.3l2.6.3,1.9.3,1.9.5,1.8.9,1.8.7a7.1,7.1,0,0,0,2,.4,8.9,8.9,0,0,0,4-1.1,30,30,0,0,0,4.1-2.5l3.8-3.1c1.3-1.1,2.3-2,3.3-2.7l1.8-1.3,1.9-1.1a8.8,8.8,0,0,0,1.7-1.2,12.9,12.9,0,0,0,1.5-1.7c.9-1.4,1.8-2.9,2.6-4.4a25.1,25.1,0,0,1,2.6-4.5l1.3-1.3,1.6-1,1.6-.8,1.6-.9,3.6-2.6,3.4-2.9,3.3-3,3.5-2.9a32.8,32.8,0,0,1,3.7-2.2l3.9-1.8,2.5-1.3,2.4-1.3,2.6-1.1a7.7,7.7,0,0,1,2.6-.7l22.3-3.3a11.2,11.2,0,0,0,3.4-1.1,17.9,17.9,0,0,0,3.4-2.2,27,27,0,0,0,3.1-2.8l2.9-3.3,2.7-3.2,2.3-2.7,7.6-9,.4-.2.5-.6a1.2,1.2,0,0,0,.5-.5c.2-.1.2-.2.3-.3l2-3.2.3-.2.3-.2.4-.2.2-.2.4-.4.4-.4,1.2-1.7a14.3,14.3,0,0,0,1.4-2,21.4,21.4,0,0,0,1.3-1.9l1-1.7a16.7,16.7,0,0,0,.8-2l.7-2.1a14.3,14.3,0,0,1,.8-2.2c.2-.7,1-1.5,1-2.2v-6a5.3,5.3,0,0,0-1.1-3.1,10.7,10.7,0,0,0-2.6-2.6,12.4,12.4,0,0,0-3.4-1.8,10.3,10.3,0,0,0-3.2-.7,26.2,26.2,0,0,0-5.7.7,11.3,11.3,0,0,0-5.1,2.6L179,61.2l-1.6,1.9-1.7,2a15.3,15.3,0,0,1-1.8,1.8,10.2,10.2,0,0,1-1.8,1.3,3.1,3.1,0,0,1-1.8.5,1.3,1.3,0,0,1-1.1-.5,1.3,1.3,0,0,1-.6-1.1v-.4a1.7,1.7,0,0,1,.2-.5c0-.2.1-.5.1-.7s.1-.6.2-.8v-.5a3.9,3.9,0,0,0-.2-1.6l-.6-1.4-.6-1.2a2.5,2.5,0,0,1-.2-1.2,1,1,0,0,0,.8-.3.9.9,0,0,0,.4-.6l.5-.7a1,1,0,0,1,.8-.6c0-.1.2-.1.5-.1h2.3a1,1,0,0,0,.9-.4l.7-.6h.4a.5.5,0,0,1,.2.4l.2.4.4-.4.6-.3,1.2-.7,1.3-.8a5.7,5.7,0,0,0,1.3-.8l1.1-.6.6-.4a12,12,0,0,1,2.1-1.2l1.7-.7,1.9-.2h6.4l1.5.5,1.5.3,1.6.3,1.5.5a16.1,16.1,0,0,1,4.5,3,14.6,14.6,0,0,1,3.2,4.2,19.6,19.6,0,0,1,1.7,5,24.7,24.7,0,0,1,.5,5.4v2.3Z"/></svg>