<svg id="Layer_1" data-name="Layer 1" xmlns="http://www.w3.org/2000/svg" width="256" height="256" viewBox="0 0 256 256"><title>micropachycephalosaurus</title><path d="M127.7,2A126.2,126.2,0,1,0,253.8,128.2,126.2,126.2,0,0,0,127.7,2ZM236.8,117.1h-7.3a90.8,90.8,0,0,1-9.1-.5l-9-.9-9.1-1a91,91,0,0,0-9.1-.4,125.4,125.4,0,0,0-16.1,1,67.7,67.7,0,0,0-15.7,3.6l-30.3,11c-.5.1-.9.7-1.2,1.5a13.8,13.8,0,0,0-.8,2.7c-.3,1-.5,2-.7,2.9a8.5,8.5,0,0,1-.6,1.9,3,3,0,0,0,1.4,1.3l2.4,1.2,2.9,1.1a17.3,17.3,0,0,1,2.7,1.5,7.4,7.4,0,0,1,2.1,1.8,4.1,4.1,0,0,1,.8,2.5,1.7,1.7,0,0,1-.5,1.2,3.6,3.6,0,0,1-1.2.8l-1.6.8-1.6.8a4,4,0,0,0-1.2,1,2.5,2.5,0,0,0-.5,1.5,3.7,3.7,0,0,0,.8,2.5,10,10,0,0,0,1.9,1.6l2.4,1.3a6.8,6.8,0,0,1,2.1,1.7,16.8,16.8,0,0,1,2,3.4,16.3,16.3,0,0,1,1.3,3.7c.3,1.2.6,2.5.8,3.8s.1,2.6.2,3.9l1.3,1.3v7.1h.9l1,.2,1,.2.5.2a4.4,4.4,0,0,1,.1.9,3.4,3.4,0,0,1-.1.9,6.5,6.5,0,0,1-.4,1.3c-.1.4-.4.6-.6.9s-.5.3-.9.3h-5.1c-.2,0-.5-.5-1-.8l-1.5-.9-1.5-.7c-.5-.3-.9-.9-1.2-.9h-6.1c0-1.6.2-2.3.7-2.9a4.1,4.1,0,0,1,1.6-1.6,6.5,6.5,0,0,1,2.1-.6l2.1-.3,1.6-.6a1.7,1.7,0,0,0,.6-1.4v-.6a17.8,17.8,0,0,1-.8-1.8c-.4-.8-.8-1.6-1.3-2.4l-1.5-2.4a10,10,0,0,0-1.6-1.8,3.6,3.6,0,0,0-1.3-.8l-1.8-1-1.7-1c-.6-.4-.9-.7-1-1.1s-.6-1.8-.9-2.9a30.1,30.1,0,0,0-1.1-3.2,7.8,7.8,0,0,0-1.7-2.6,3.9,3.9,0,0,0-2.9-1,20.6,20.6,0,0,0-6,.8,24.1,24.1,0,0,0-5.6,2.2,22.4,22.4,0,0,0-8.9,8l-.3.2h-.3l-.2-.4c-.1-.1-.1-.3-.2-.6s-.1-.4-.1-.6-.1-.3-.2-.3h-.3a1.4,1.4,0,0,0-1,.5l-.9,1.1-.8,1.4-.9.9a6.4,6.4,0,0,1-.6-1.6c0-.4-.1-1-.1-1.6a13.5,13.5,0,0,1,.4-2.9l.9-2.8a10.6,10.6,0,0,0,.9-2.5,15.9,15.9,0,0,0,.4-2.8H93.9c0-1.6.2-1.7.6-2.3a8.1,8.1,0,0,1,1.6-1.6l2.1-.9,2.1-.3,3,.2,2.9.5,2.9.5h5.2a2.7,2.7,0,0,0-1.7-1.4l-2.5-.4-2.7-.2c-.9-.1-1.6.1-2.1-.2l-3.9-2.2h-.3a10.7,10.7,0,0,0-3.1,0,16.7,16.7,0,0,1-3.2.2,7.3,7.3,0,0,1-2.9-.7l-2.7-1.4a12.6,12.6,0,0,0-2.6-1.3,4.7,4.7,0,0,0-2.8-.7v6h1.6l1-.3.8-.5c.3-.2.4-.5.9-.7l.6-.2v2.8l2-.7c0,.1.2.3.2.5a4.3,4.3,0,0,0,.1.5,5.6,5.6,0,0,1-1.3,3.9,23.1,23.1,0,0,1-3.2,2.9,21.3,21.3,0,0,0-4.6-1.3l-4.7-.7v-7.7l-1.7.5-2.1,1L71.5,150c-.4.4-.9.8-.9,1.2V158a9.6,9.6,0,0,0,3-.3l1.8-.5,1.2-.6a2.4,2.4,0,0,1,1.2-.3h.4a4.5,4.5,0,0,0,.2.8c.2.3.3.8.5,1.2a6.5,6.5,0,0,1,.4,1.3,5.1,5.1,0,0,1,.2.9,5.8,5.8,0,0,1-.4,1.9,5.4,5.4,0,0,1-1.1,1.8,5,5,0,0,1-1.5,1.4,4.1,4.1,0,0,1-1.9.5h-1l-2.9-.5-3.7-.7a15.2,15.2,0,0,1-3.2-1.2,2.6,2.6,0,0,1-1.4-2.1V149.9l.9-.8a15.4,15.4,0,0,1,1.8-1.6l2.4-2.2a18.8,18.8,0,0,0,2.4-2.5,31,31,0,0,0,1.8-2.6,6.8,6.8,0,0,0,.7-2.6,3.6,3.6,0,0,0-1.2-2.7,12.1,12.1,0,0,0-2.8-2.1l-3.2-1.4-2.5-.9-1.3-9a16.8,16.8,0,0,0-.6-2.7,12.8,12.8,0,0,0-1.1-2.7,7.4,7.4,0,0,0-1.8-2.1,3.9,3.9,0,0,0-2.6-.9,12.5,12.5,0,0,0-3.6.5,13,13,0,0,0-3.2,1.5l-1.6,1-2.5,1.5-3,1.7L38.5,121l-2.6,1.7c-.7.4-1.3,1.1-1.6,1.1h-1l-1.7-.3-2.1-.3a5.7,5.7,0,0,1-1.3-.8c-.5-.3-.4-.8-.4-1.3v-1.9c0-.6-.2-.9.1-.9h1.5v-.5c.1-.2.1-.5.2-.8s.1-.6.2-.8v-.5a1.5,1.5,0,0,0-.8-.8l-.9-.5-.7-.7a1.9,1.9,0,0,1-.3-1.2,2.7,2.7,0,0,1,.3-1.2,4.1,4.1,0,0,1,.7-1.1c.2-.4.2-.7.6-.9l.8-.3v.7c0,.5.4,1,.5,1.5a1.2,1.2,0,0,0,1.2.7,1.3,1.3,0,0,0,1.1-.5,5.2,5.2,0,0,0,1-1.1c.2-.4.4-1.2.6-1.6s.3.3.3-1.4H22l-.8-.4-1.1-.7-.9-.8a1.8,1.8,0,0,1-.4-1,4.6,4.6,0,0,1,1.1-3.2,10,10,0,0,1,2.6-1.8l3.1-1a17.1,17.1,0,0,0,2.9-.8l2.2-.9L34,95.1l3.3-1.5a10.7,10.7,0,0,1,2.2-1.1H53a7,7,0,0,1,3.8,1A12.6,12.6,0,0,1,59.9,96a20.4,20.4,0,0,1,2.5,3.3l2.3,3.3a18.9,18.9,0,0,0,2.3,2.5,3.7,3.7,0,0,0,2.4,1c.4,0,.7-.1.8-.4a.8.8,0,0,1,.8-.4l1.5.3,1.6.7,1.5.7a4,4,0,0,0,1.5.3,27.5,27.5,0,0,0,4.1-.2l4.1-.4,4-.5,4.1-.2a58.5,58.5,0,0,1,7.3.4,37.5,37.5,0,0,1,7.1,1.5,43.4,43.4,0,0,1,5,2l5.1,2.2a52.5,52.5,0,0,0,5.2,1.7,20,20,0,0,0,5.4.7h2.6l12.7-2.7c4.3-.9,8.5-1.6,12.8-2.3s8.5-1.1,12.8-1.5,8.6-.6,13-.6h8.8a34,34,0,0,1,5,1l36.1,7.2h11.6c-.8,0-1.8,1-3.1,1.3A13.3,13.3,0,0,1,236.8,117.1Z"/></svg>