<svg id="Layer_1" data-name="Layer 1" xmlns="http://www.w3.org/2000/svg" width="256" height="256" viewBox="0 0 256 256"><title>velociraptor</title><path d="M132.3,149.6c-.2,0-.4.2-.4.6h-.1c-.3,0-.4.2-.4.5s.1.6.4.6.5-.2.5-.6h0c.4,0,.5-.1.5-.5S132.7,149.6,132.3,149.6Z"/><path d="M133.8,148.8a3.6,3.6,0,0,0-.9.8h.3a2,2,0,0,0,1.1-.3,2.4,2.4,0,0,0,.9-.8h-.3A2,2,0,0,0,133.8,148.8Z"/><path d="M136.8,146.3c-.3,0-.4.2-.4.5h-.1c-.3,0-.5.2-.5.6h-.1c-.3,0-.5.2-.5.6a.5.5,0,0,0,1,0h.1c.3,0,.4-.2.4-.6h.1c.4,0,.5-.2.5-.6S137.2,146.3,136.8,146.3Z"/><path d="M159.9,140.4l-1.3,1.4a2,2,0,0,0,.8,1.1h1.1a2.1,2.1,0,0,0,1.4-.4,6.3,6.3,0,0,0,1.1-1.2,10.1,10.1,0,0,0,.7-1.5c.2-.5.4-1.2.5-1.2h-3.4C160.6,138.7,160.3,139.8,159.9,140.4Z"/><path d="M127.8.5A126.2,126.2,0,1,0,254,126.7,126.1,126.1,0,0,0,127.8.5Zm94.6,74.8a3.3,3.3,0,0,1-1.5.4h-3.7l-5.1,1.2a18.6,18.6,0,0,0-3.7,1.6,7.3,7.3,0,0,0-2.4,2.2,11.9,11.9,0,0,0-1.8,2.9c-.5,1.1-1,2.4-1.5,3.8s-1,3.2-1.6,5.1l-1.2,3.4-1.2,3.1a29.6,29.6,0,0,1-1.5,3.1c-.5,1.1-1.1,2.1-1.7,3.2a24.2,24.2,0,0,1-2.7,4.1l-2.9,3.6-3.1,3.6-3.1,3.8a9.1,9.1,0,0,0-1.3,2.6,27.7,27.7,0,0,1-1,2.6,9.2,9.2,0,0,1-1.3,2.1,5.7,5.7,0,0,1-2.5,1.6,8.5,8.5,0,0,1-1.3.6l-2,.7-2.1.6-1.3.4a3,3,0,0,1,.2,2,2,2,0,0,1-.9.9l-1.2.6a2,2,0,0,0-.9.9l-2.2,6.7a2.7,2.7,0,0,1-1.1,1.5,5.6,5.6,0,0,1-1.7.9,13.6,13.6,0,0,1-2,.2l-1.9-.2h-.8c-.5,0-.9.2-1.1.1s-.4-.4-.4-.9a.4.4,0,0,1,.1-.3l.2-.3.2-.3c.1-.1.1-.2.1-.4h0v-.2a27,27,0,0,0-3.4,1.7l-3.3,2-3.3,2.2-3.4,1.9-.8.5-1.2.5-1,.8a1.4,1.4,0,0,0-.4,1v.6l1.8,1.6,1.9,1.7,2.1,1.6,2.1,1.3a7.6,7.6,0,0,0,1.8.6l1.9.6,1.9.6a5.1,5.1,0,0,1,1.6.9,9.3,9.3,0,0,1,1.4,1.4l1.1,1.5,1.1,1.5a8.1,8.1,0,0,0,1.4,1.2,5.6,5.6,0,0,0,1.7.6l2.1.7a4.2,4.2,0,0,1,1.7,1,2,2,0,0,1,.8,1.7v.5l-5.6,1.1-1.1.4-1.1.2h-.6l-1.1-.6-1.7-1-1.7-1-1.1-.8-.2-.2-.3-.5-.3-.5-.3-.5-2.2-4.5-1.1-.4-1.8-.7-2.2-1-2.1-.9-1.8-.8-1.1-.6-2.7-1.6a13.3,13.3,0,0,1-2.6-2.1,10.5,10.5,0,0,1-2-2.7,8.9,8.9,0,0,1-1.1-3.1l-.5.2-.6.4-.9.6-1.7,1.2-2.1,1.4-2.1,1.3-1.7,1.1-.9.5-6,3.5a26.5,26.5,0,0,0-4.5,3.4,19.2,19.2,0,0,0-3.6,4.4c-.9,1.7-.7,3.9-2.4,6.6v.2c0,.1.1.3,0,.4v1a10.4,10.4,0,0,0,1.2,4.4,6.5,6.5,0,0,0,2.1,2.5,9.4,9.4,0,0,0,2.6,1.4l2.6,1a5.6,5.6,0,0,1,1.9.9,6.3,6.3,0,0,1,.8,2.1H102.2l-.2-.4c-.1-.2-.2-.2-.4-.2l-.4-.2-.7-.3a2.9,2.9,0,0,1-1.2-1.5,14.2,14.2,0,0,1-.5-2.2c0-.8.2-1.5.2-2.3a19.6,19.6,0,0,0,.3-2v-1.5a8.6,8.6,0,0,1,.3-1.7c.2-.8.3-1.7.5-2.7s.5-2,.8-3.1.6-2.2.8-3.2.5-1.8.7-2.6l.4-1.8.6-2c.3-.5.6-1.2,1-1.8a16.1,16.1,0,0,0,4.5-2.6,24.2,24.2,0,0,0,3.2-3.2c1-1.2,2-2.3,2.9-3.5a16.6,16.6,0,0,1,3.4-3l1.4-.7,2.1-.8,2.3-1a10.3,10.3,0,0,0,2.1-1.1,5.3,5.3,0,0,0,1.6-1.3,2.4,2.4,0,0,0,.6-1.5v-1.4a1.7,1.7,0,0,0-.6-1.2l-.8-.2-1.2-.6-1.2-.5-.7-.4a9.4,9.4,0,0,1-2-1.2l-2.7-1.8a25.6,25.6,0,0,0-2.5-1.6,3,3,0,0,0-1.7-.5h-7.8c-6,0-11.8-.1-17.6.1H72.2c-4.4,0-8.7-.1-12.8-.3a98.4,98.4,0,0,1-12.3-1.4,71.2,71.2,0,0,1-11.9-2.9,65.3,65.3,0,0,1-11.7-5l-1.4-.7-1.6-1a5.3,5.3,0,0,1-1.3-1.3,2.4,2.4,0,0,1-.5-1.6,9.5,9.5,0,0,1,2.1.4l2.3,1,2.2.9,1.5.7,4.6,1.6,5.1,1.4a31.6,31.6,0,0,0,5,1,28.5,28.5,0,0,0,4.9.4H72.7l2.5-.4,3.4-.5,3.6-.6,3.4-.6,2.6-.6,6.9-1.3,7.3-1.6q3.8-.9,7.2-2.1a48.4,48.4,0,0,0,6.6-2.8l3.8-1.8,3.7-1.6,4-1.3c1.3-.3,2.7-.7,4.1-.9h2.8l1.8-.2h1l1.9-.4,3.3-.7,4-.9,4.1-.9c1.2-.3,2.3-.9,3.2-1.1s1.6-.7,1.9-.7h6.5c2.7,0,5.4.5,7.9.7s5.1.5,7.8.5a11.1,11.1,0,0,0,5-1.2,21,21,0,0,0,4.5-3.5,32.8,32.8,0,0,0,3.8-5,63.2,63.2,0,0,0,3.3-5.6c.9-1.9,1.8-3.7,2.5-5.5l1.8-4.8c.4-1.2.7-2.3,1.1-3.4a22.6,22.6,0,0,1,1-3.1,10.3,10.3,0,0,1,1.2-2.6,5.5,5.5,0,0,1,1.7-2,7.6,7.6,0,0,1,2.6-1.6,12.7,12.7,0,0,1,3.8-.8h3c.8,1.7,1.8.9,3,1.3a36.8,36.8,0,0,1,3.5,1.5,17.2,17.2,0,0,1,3,1.9,2.6,2.6,0,0,1,1.2,2.1,2,2,0,0,1-.4,1.4A2.5,2.5,0,0,1,222.4,75.3Z"/></svg>